<?xml version="1.0" encoding="utf-8"?>
<!-- Generator: Adobe Illustrator 26.3.1, SVG Export Plug-In . SVG Version: 6.00 Build 0)  -->
<svg version="1.1" id="Layer_1" xmlns="http://www.w3.org/2000/svg" xmlns:xlink="http://www.w3.org/1999/xlink" x="0px" y="0px"
	 viewBox="0 0 117 15" style="enable-background:new 0 0 117 15;" xml:space="preserve">
<style type="text/css">
	.st0{enable-background:new    ;}
</style>
<g class="st0">
	<path d="M2.9,11.7c0,0,1.3,1.5,3.3,1.5c1.4,0,2.5-0.9,2.5-2.3c0-3.3-6.3-2.5-6.3-6.6c0-1.9,1.6-3.6,3.9-3.6C8.6,0.7,9.8,2,9.8,2
		L9.1,3.1c0,0-1.1-1.1-2.8-1.1c-1.6,0-2.7,1.1-2.7,2.3c0,3.2,6.3,2.2,6.3,6.6c0,2-1.5,3.6-3.8,3.6c-2.6,0-4-1.7-4-1.7L2.9,11.7z"/>
	<path d="M19.4,0.7c3.6,0,6.4,3,6.4,6.8c0,3.9-2.9,7-6.4,7s-6.4-3.1-6.4-7C12.9,3.7,15.8,0.7,19.4,0.7z M19.4,13.2
		c2.8,0,5.1-2.5,5.1-5.7c0-3.2-2.3-5.6-5.1-5.6c-2.9,0-5.1,2.4-5.1,5.6C14.2,10.7,16.5,13.2,19.4,13.2z"/>
	<path d="M30.2,0.9h1.3l3.3,7.8c0.3,0.7,0.6,1.6,0.6,1.6h0c0,0,0.3-0.9,0.6-1.6l3.3-7.8h1.3l1,13.3h-1.2l-0.7-9.3
		c-0.1-0.7,0-1.9,0-1.9h0c0,0-0.4,1.2-0.7,1.9l-3,6.8h-1.2l-3-6.8C31.6,4.2,31.2,3,31.2,3h0c0,0,0,1.2,0,1.9l-0.7,9.3h-1.2L30.2,0.9
		z"/>
	<path d="M46,0.9h7.1v1.2h-5.9v4.8H52v1.2h-4.8V13h6.2v1.2H46V0.9z"/>
	<path d="M57.2,0.9h1.2V13h5.9v1.2h-7.1V0.9z"/>
	<path d="M72.6,0.7c3.6,0,6.4,3,6.4,6.8c0,3.9-2.9,7-6.4,7s-6.4-3.1-6.4-7C66.1,3.7,69,0.7,72.6,0.7z M72.6,13.2
		c2.8,0,5.1-2.5,5.1-5.7c0-3.2-2.3-5.6-5.1-5.6c-2.9,0-5.1,2.4-5.1,5.6C67.4,10.7,69.7,13.2,72.6,13.2z"/>
	<path d="M88.3,0.7c2.9,0,4.5,1.5,4.5,1.5l-0.7,1c0,0-1.5-1.3-3.8-1.3c-3.1,0-5.1,2.5-5.1,5.6c0,3.3,2.1,5.7,5,5.7
		c2.5,0,4-1.9,4-1.9V9h-2.2V7.9h3.3v6.3h-1.2v-1c0-0.3,0-0.6,0-0.6h0c0,0-1.5,1.8-4.1,1.8c-3.5,0-6.2-2.9-6.2-6.9
		C82,3.7,84.7,0.7,88.3,0.7z"/>
	<path d="M103,0.7c3.6,0,6.4,3,6.4,6.8c0,3.9-2.9,7-6.4,7s-6.4-3.1-6.4-7C96.6,3.7,99.4,0.7,103,0.7z M103,13.2
		c2.8,0,5.1-2.5,5.1-5.7c0-3.2-2.3-5.6-5.1-5.6c-2.9,0-5.1,2.4-5.1,5.6C97.9,10.7,100.2,13.2,103,13.2z"/>
</g>
</svg>
